<svg xmlns="http://www.w3.org/2000/svg" shape-rendering="geometricPrecision" text-rendering="geometricPrecision" image-rendering="optimizeQuality" fill-rule="evenodd" clip-rule="evenodd" viewBox="0 0 512 511.97"><path fill-rule="nonzero" d="M23.77 0h185.92c13.09 0 23.77 10.69 23.77 23.77v185.92c0 13.02-10.75 23.77-23.77 23.77H23.77C10.72 233.46 0 222.74 0 209.69V23.77C0 10.65 10.65 0 23.77 0zM302.3 278.5h185.93c13.02 0 23.77 10.75 23.77 23.77V488.2c0 13-10.78 23.77-23.77 23.77H302.3c-6.5 0-12.45-2.69-16.75-6.97-4.33-4.37-7.02-10.31-7.02-16.8V302.27c0-13.12 10.65-23.77 23.77-23.77zm181.91 27.78h-177.9v177.9h177.9v-177.9zM302.3 0h185.93C501.25 0 512 10.75 512 23.77v185.92c0 13.02-10.75 23.77-23.77 23.77H302.3c-13.05 0-23.77-10.72-23.77-23.77V23.77C278.53 10.65 289.18 0 302.3 0zm181.91 27.79h-177.9v177.88h177.9V27.79zM23.77 278.5h185.92c13.09 0 23.77 10.68 23.77 23.77V488.2c0 13.01-10.75 23.77-23.77 23.77H23.77C10.75 511.97 0 501.21 0 488.2V302.27c0-13.12 10.65-23.77 23.77-23.77zm181.9 27.78H27.79v177.9h177.88v-177.9zm0-278.49H27.79v177.88h177.88V27.79z"/></svg>